<?xml version="1.0" encoding="utf-8"?>
<!-- Generator: Adobe Illustrator 24.3.0, SVG Export Plug-In . SVG Version: 6.00 Build 0)  -->
<svg version="1.1" id="Layer_1" xmlns="http://www.w3.org/2000/svg" xmlns:xlink="http://www.w3.org/1999/xlink" x="0px" y="0px"
	 viewBox="0 0 186 19" style="enable-background:new 0 0 186 19;" xml:space="preserve">
<style type="text/css">
	.st0{fill:#FFFFFF;}
</style>
<desc>Created with Sketch.</desc>
<g>
	<path class="st0" d="M3.9,18.6c-1.4-0.4-2.5-0.9-3.4-1.5l1.7-3.8C3,13.8,4,14.3,5,14.6c1.1,0.3,2.1,0.5,3.2,0.5c2,0,3-0.5,3-1.5
		c0-0.5-0.3-0.9-0.8-1.2c-0.6-0.3-1.5-0.5-2.7-0.8c-1.4-0.3-2.5-0.6-3.4-1c-0.9-0.3-1.7-0.9-2.4-1.6s-1-1.8-1-3c0-1.1,0.3-2.1,0.9-3
		c0.6-0.9,1.5-1.6,2.7-2.1c1.2-0.5,2.7-0.8,4.4-0.8c1.2,0,2.4,0.1,3.5,0.4s2.2,0.7,3.1,1.2l-1.6,3.8c-1.7-0.9-3.4-1.4-5.1-1.4
		c-1,0-1.8,0.2-2.2,0.5C6.2,4.9,5.9,5.3,5.9,5.8c0,0.5,0.3,0.9,0.8,1.1c0.6,0.2,1.5,0.5,2.7,0.8c1.4,0.3,2.5,0.6,3.5,1
		c0.9,0.3,1.7,0.9,2.4,1.6c0.7,0.7,1,1.7,1,3c0,1.1-0.3,2.1-0.9,3c-0.6,0.9-1.5,1.6-2.7,2.1s-2.7,0.8-4.4,0.8
		C6.7,19.1,5.3,18.9,3.9,18.6z"/>
	<path class="st0" d="M38.1,0.5v18.3H33v-7.1h-7v7.1h-5.2V0.5h5.2v6.9h7V0.5H38.1z"/>
	<path class="st0" d="M43.9,0.5h5.2v18.3h-5.2V0.5z"/>
	<path class="st0" d="M57,18.6c-1.4-0.4-2.5-0.9-3.4-1.5l1.7-3.8c0.8,0.5,1.8,1,2.8,1.3c1.1,0.3,2.1,0.5,3.2,0.5c2,0,3-0.5,3-1.5
		c0-0.5-0.3-0.9-0.8-1.2c-0.6-0.3-1.5-0.5-2.7-0.8c-1.4-0.3-2.5-0.6-3.4-1c-0.9-0.3-1.7-0.9-2.4-1.6s-1-1.8-1-3c0-1.1,0.3-2.1,0.9-3
		c0.6-0.9,1.5-1.6,2.7-2.1c1.2-0.5,2.7-0.8,4.4-0.8c1.2,0,2.4,0.1,3.5,0.4s2.2,0.7,3.1,1.2L67,5.5c-1.7-0.9-3.4-1.4-5.1-1.4
		c-1,0-1.8,0.2-2.2,0.5C59.3,4.9,59,5.3,59,5.8c0,0.5,0.3,0.9,0.8,1.1c0.6,0.2,1.5,0.5,2.7,0.8c1.4,0.3,2.5,0.6,3.5,1
		c0.9,0.3,1.7,0.9,2.4,1.6c0.7,0.7,1,1.7,1,3c0,1.1-0.3,2.1-0.9,3c-0.6,0.9-1.5,1.6-2.7,2.1s-2.7,0.8-4.4,0.8
		C59.8,19.1,58.4,18.9,57,18.6z"/>
	<path class="st0" d="M86.1,15.2h-7.7l-1.4,3.5h-5.3l8.1-18.3h5.1l8.1,18.3h-5.4L86.1,15.2z M84.6,11.4l-2.3-5.8l-2.3,5.8H84.6z"/>
	<path class="st0" d="M113.9,0.5v18.3h-4.3L101.5,9v9.7h-5.1V0.5h4.3l8.1,9.7V0.5H113.9z"/>
	<path class="st0" d="M134.3,14.8v4h-14.7V0.5H134v4h-9.2v3.1h8.1v3.9h-8.1v3.3H134.3z"/>
	<path class="st0" d="M167.7,0.5l-5.9,18.3h-5.5l-3.5-11.1l-3.7,11.1h-5.5l-5.9-18.3h5.3l3.7,11.7l3.9-11.7h4.7l3.7,11.8l3.8-11.8
		H167.7z"/>
	<path class="st0" d="M173.8,18.6c-1.4-0.4-2.5-0.9-3.4-1.5l1.7-3.8c0.8,0.5,1.8,1,2.8,1.3c1.1,0.3,2.1,0.5,3.2,0.5c2,0,3-0.5,3-1.5
		c0-0.5-0.3-0.9-0.8-1.2s-1.5-0.5-2.7-0.8c-1.4-0.3-2.5-0.6-3.4-1c-0.9-0.3-1.7-0.9-2.4-1.6s-1-1.8-1-3c0-1.1,0.3-2.1,0.9-3
		c0.6-0.9,1.5-1.6,2.7-2.1c1.2-0.5,2.7-0.8,4.4-0.8c1.2,0,2.4,0.1,3.5,0.4c1.2,0.3,2.2,0.7,3.1,1.2l-1.6,3.8
		c-1.7-0.9-3.4-1.4-5.1-1.4c-1,0-1.8,0.2-2.2,0.5c-0.5,0.3-0.7,0.7-0.7,1.2c0,0.5,0.3,0.9,0.8,1.1c0.6,0.2,1.5,0.5,2.7,0.8
		c1.4,0.3,2.5,0.6,3.5,1c0.9,0.3,1.7,0.9,2.4,1.6c0.7,0.7,1,1.7,1,3c0,1.1-0.3,2.1-0.9,3c-0.6,0.9-1.5,1.6-2.7,2.1s-2.7,0.8-4.4,0.8
		C176.6,19.1,175.1,18.9,173.8,18.6z"/>
</g>
</svg>
